<svg xmlns="http://www.w3.org/2000/svg" width="144" height="65" fill="none"><path fill="url(#a)" d="M43.093 63.073H27.926V50.048H0V35.149L27.926 1.427h15.168v36.399h9.1v12.222h-9.1v13.025zM27.926 17.93 11.153 37.826h16.773V17.93z"/><path fill="url(#b)" d="M82.937 64.5c-14.096 0-25.517-6.423-25.517-19.091 0-8.297 5.71-12.936 11.599-15.523v-.178c-4.372-2.32-8.922-6.067-8.922-13.025C60.097 6.066 70.268 0 82.937 0c12.67 0 22.841 6.066 22.841 16.683 0 6.958-4.64 10.705-8.922 13.024v.179c5.799 2.587 11.598 7.226 11.598 15.523 0 12.668-11.42 19.091-25.517 19.091zm0-38.807c6.246 0 9.1-3.48 9.1-7.672 0-4.015-2.854-7.583-9.1-7.583-6.245 0-9.1 3.568-9.1 7.583 0 4.193 2.855 7.672 9.1 7.672zm0 27.477c6.514 0 9.993-4.193 9.993-9.189 0-4.817-3.48-9.01-9.993-9.01s-9.992 4.193-9.992 9.01c0 4.996 3.48 9.19 9.992 9.19z"/><path fill="url(#c)" d="M120.849 51.787c2.117 0 3.549 1.39 3.549 3.89v7.396h-3.42v-6.306c0-1.645-.577-2.201-1.71-2.201-1.304 0-2.052.662-2.052 2.18v6.327h-3.421V47.79h3.421v5.92h.042c.577-1.005 1.646-1.924 3.591-1.924z"/><path fill="url(#d)" d="M132.351 52.044c.299 0 .555 0 .94.085v2.993a4.32 4.32 0 0 0-.705-.065c-1.539 0-2.95.962-2.95 2.929v5.087h-3.42V52.129h3.42v1.796h.043c.534-1.154 1.475-1.881 2.672-1.881z"/><path fill="url(#e)" d="M139.105 63.415c-3.826 0-5.323-1.838-5.408-3.976h3.206c.107 1.09.834 1.624 2.138 1.624 1.004 0 1.453-.32 1.453-.94 0-.983-1.09-1.09-2.672-1.453-1.923-.45-3.911-1.219-3.911-3.442 0-2.051 1.71-3.44 4.788-3.44 3.505 0 4.873 1.773 4.98 3.697h-3.206c-.107-.876-.577-1.347-1.71-1.347-.941 0-1.347.342-1.347.877 0 .727.642.77 2.287 1.154 2.159.513 4.297 1.154 4.297 3.698 0 2.287-1.731 3.548-4.895 3.548z"/><defs><linearGradient id="a" x1="70.417" x2="70.417" y1="19.734" y2="70.665" gradientUnits="userSpaceOnUse"><stop stop-color="#7554EE"/><stop offset="1" stop-color="#fff"/></linearGradient><linearGradient id="b" x1="70.417" x2="70.417" y1="19.734" y2="70.665" gradientUnits="userSpaceOnUse"><stop stop-color="#7554EE"/><stop offset="1" stop-color="#fff"/></linearGradient><linearGradient id="c" x1="70.417" x2="70.417" y1="19.734" y2="70.665" gradientUnits="userSpaceOnUse"><stop stop-color="#7554EE"/><stop offset="1" stop-color="#fff"/></linearGradient><linearGradient id="d" x1="70.417" x2="70.417" y1="19.734" y2="70.665" gradientUnits="userSpaceOnUse"><stop stop-color="#7554EE"/><stop offset="1" stop-color="#fff"/></linearGradient><linearGradient id="e" x1="70.417" x2="70.417" y1="19.734" y2="70.665" gradientUnits="userSpaceOnUse"><stop stop-color="#7554EE"/><stop offset="1" stop-color="#fff"/></linearGradient></defs></svg>