<svg xmlns="http://www.w3.org/2000/svg" width="302" height="252" fill="none"><g filter="url(#a)" opacity=".8"><rect width="159.344" height="211.893" x=".344" y="40" fill="#fff" fill-opacity=".1" rx="16.951"/></g><rect width="98.319" height="8" x="30.855" y="60.952" fill="#fff" rx="4"/><rect width="130.526" height="8" x="14.748" y="89.769" fill="#fff" rx="4"/><rect width="98.319" height="8" x="30.855" y="104.568" fill="#fff" rx="4"/><rect width="98.319" height="8" x="30.855" y="132.385" fill="#fff" rx="4"/><rect width="98.319" height="8" x="30.855" y="151.032" fill="#fff" rx="4"/><rect width="98.319" height="8" x="30.855" y="169.679" fill="#fff" rx="4"/><rect width="98.319" height="8" x="30.855" y="188.325" fill="#fff" rx="4"/><rect width="130.526" height="23.732" x="14.748" y="217.991" fill="#fff" rx="11.866"/><g filter="url(#b)"><rect width="159.344" height="211.893" x="103.999" fill="url(#c)" rx="16.95"/><rect width="158.344" height="210.893" x="104.499" y=".5" stroke="url(#d)" rx="16.45"/></g><rect width="98.319" height="11.866" x="134.51" y="16.952" fill="#A8A3FF" opacity=".7" rx="5.933"/><rect width="130.526" height="11.866" x="118.403" y="45.769" fill="#A8A3FF" opacity=".7" rx="5.933"/><rect width="98.319" height="11.866" x="134.51" y="63.568" fill="#A8A3FF" opacity=".7" rx="5.933"/><rect width="98.319" height="11.866" x="134.51" y="92.385" fill="#A8A3FF" opacity=".7" rx="5.933"/><rect width="98.319" height="11.866" x="134.51" y="111.032" fill="#A8A3FF" opacity=".7" rx="5.933"/><rect width="98.319" height="11.866" x="134.51" y="129.679" fill="#A8A3FF" opacity=".7" rx="5.933"/><rect width="98.319" height="11.866" x="134.51" y="148.325" fill="#A8A3FF" opacity=".7" rx="5.933"/><rect width="130.526" height="23.732" x="118.403" y="177.991" fill="#fff" rx="11.866"/><rect width="56.635" height="56.635" x="244.354" y="136.112" fill="#5E55F5" rx="28.317"/><rect width="3.39" height="6.781" x="271.823" y="147.478" fill="#fff" opacity=".3" rx=".848"/><rect width="3.39" height="8.476" x="271.823" y="171.21" fill="#fff" opacity=".3" rx=".848"/><path fill="#fff" fill-rule="evenodd" d="M278.592 157.723c-.472-.601-1.089-1.079-1.851-1.433-.763-.354-1.498-.531-2.207-.531a6.61 6.61 0 0 0-1.111.096 2.862 2.862 0 0 0-1.014.371 2.495 2.495 0 0 0-.757.708c-.204.29-.306.66-.306 1.111 0 .387.08.709.241.967.161.257.398.483.709.676.311.193.682.37 1.111.531.429.161.913.328 1.449.5.773.257 1.579.542 2.416.853a9.04 9.04 0 0 1 2.287 1.24 6.51 6.51 0 0 1 1.707 1.916c.451.763.676 1.713.676 2.851 0 1.31-.241 2.442-.725 3.398a6.779 6.779 0 0 1-1.948 2.367 8.353 8.353 0 0 1-2.802 1.385 11.77 11.77 0 0 1-3.253.451c-1.632 0-3.21-.285-4.735-.854-1.524-.569-2.791-1.379-3.8-2.431l3.607-3.672c.558.687 1.294 1.261 2.206 1.723.913.462 1.82.693 2.722.693a5.46 5.46 0 0 0 1.191-.129 2.98 2.98 0 0 0 1.015-.419c.29-.193.521-.451.692-.773.172-.322.258-.709.258-1.159 0-.43-.107-.795-.322-1.095-.215-.301-.521-.575-.918-.822s-.891-.472-1.481-.676a76.698 76.698 0 0 0-2.013-.66 19.435 19.435 0 0 1-2.142-.838 7.145 7.145 0 0 1-1.868-1.24 5.727 5.727 0 0 1-1.321-1.836c-.333-.719-.499-1.594-.499-2.625 0-1.266.258-2.351.773-3.253a6.73 6.73 0 0 1 2.029-2.222 8.698 8.698 0 0 1 2.834-1.272 12.823 12.823 0 0 1 3.189-.403c1.288 0 2.603.236 3.945.709a10.155 10.155 0 0 1 3.527 2.093l-3.511 3.704z" clip-rule="evenodd"/><rect width="56.635" height="56.635" x="244.354" y="136.112" stroke="#fff" rx="28.317"/><defs><linearGradient id="c" x1="183.671" x2="183.671" y1="0" y2="211.931" gradientUnits="userSpaceOnUse"><stop stop-color="#8274FD"/><stop offset="1" stop-color="#3431EC"/></linearGradient><linearGradient id="d" x1="155.613" x2="363.874" y1="-25.497" y2="109.682" gradientUnits="userSpaceOnUse"><stop stop-color="#4E4949"/><stop offset="1" stop-color="#393838" stop-opacity="0"/></linearGradient><filter id="a" width="166.124" height="218.674" x="-3.047" y="36.61" color-interpolation-filters="sRGB" filterUnits="userSpaceOnUse"><feFlood flood-opacity="0" result="BackgroundImageFix"/><feGaussianBlur in="BackgroundImageFix" stdDeviation="1.695"/><feComposite in2="SourceAlpha" operator="in" result="effect1_backgroundBlur_632_2781"/><feBlend in="SourceGraphic" in2="effect1_backgroundBlur_632_2781" result="shape"/></filter><filter id="b" width="247.344" height="299.894" x="59.999" y="-44" color-interpolation-filters="sRGB" filterUnits="userSpaceOnUse"><feFlood flood-opacity="0" result="BackgroundImageFix"/><feGaussianBlur in="BackgroundImageFix" stdDeviation="22"/><feComposite in2="SourceAlpha" operator="in" result="effect1_backgroundBlur_632_2781"/><feBlend in="SourceGraphic" in2="effect1_backgroundBlur_632_2781" result="shape"/></filter></defs></svg>