<svg xmlns="http://www.w3.org/2000/svg" width="200" height="192" fill="none"><circle cx="99.692" cy="59.077" r="58.577" fill="url(#a)" fill-opacity=".2" stroke="#7B6EFC"/><path fill="#fff" d="M79.988 62.058c-.707 0-1.326-.154-1.86-.46a3.103 3.103 0 0 1-1.23-1.29c-.286-.554-.43-1.194-.43-1.92 0-.707.144-1.334.43-1.88a3.12 3.12 0 0 1 1.22-1.29c.534-.307 1.157-.46 1.87-.46.907 0 1.657.253 2.25.76.594.5.967 1.196 1.12 2.09h-1.23c-.113-.554-.36-.987-.74-1.3-.38-.314-.847-.47-1.4-.47-.466 0-.873.103-1.22.31a2.06 2.06 0 0 0-.79.89c-.186.386-.28.836-.28 1.35 0 .8.204 1.43.61 1.89.413.46.973.69 1.68.69.567 0 1.037-.154 1.41-.46.374-.314.617-.747.73-1.3h1.23c-.16.906-.533 1.61-1.12 2.11-.587.493-1.337.74-2.25.74zm4.185-.15v-5.3h.95l.14 1.04c.347-.734.96-1.1 1.84-1.1h.2v1.15h-.2c-.553 0-.983.14-1.29.42-.307.28-.46.67-.46 1.17v2.62h-1.18zm6.01.15c-.534 0-1.007-.117-1.42-.35a2.563 2.563 0 0 1-.97-.99 3.02 3.02 0 0 1-.34-1.44c0-.567.113-1.064.34-1.49.233-.434.55-.764.95-.99.4-.234.847-.35 1.34-.35.5 0 .936.113 1.31.34.38.22.677.54.89.96.213.413.323.903.33 1.47v.28h-3.98c.04.473.197.853.47 1.14.28.28.643.42 1.09.42.306 0 .57-.07.79-.21a1.15 1.15 0 0 0 .46-.62h1.15c-.133.573-.413 1.023-.84 1.35-.427.32-.95.48-1.57.48zm1.21-3.39c-.073-.387-.227-.687-.46-.9a1.192 1.192 0 0 0-.85-.32c-.347 0-.644.11-.89.33-.247.213-.417.51-.51.89h2.71zm3.69 3.35c-.613 0-1.103-.137-1.47-.41-.36-.28-.54-.664-.54-1.15 0-.56.207-.954.62-1.18.42-.227.97-.38 1.65-.46l.54-.06c.307-.034.527-.087.66-.16.134-.08.2-.187.2-.32a.777.777 0 0 0-.3-.62c-.193-.16-.456-.24-.79-.24-.346 0-.636.086-.87.26a.926.926 0 0 0-.4.67h-1.19c.034-.367.16-.694.38-.98.22-.294.51-.52.87-.68.367-.16.777-.24 1.23-.24.7 0 1.244.173 1.63.52.394.346.59.81.59 1.39v2.4c0 .153.087.23.26.23h.29v.92h-.56c-.266 0-.483-.054-.65-.16a.73.73 0 0 1-.31-.46c-.02-.06-.036-.12-.05-.18-.326.606-.923.91-1.79.91zm.24-.93c.414 0 .754-.107 1.02-.32.267-.214.4-.497.4-.85v-.74c-.086.14-.23.24-.43.3-.2.053-.48.103-.84.15-.413.046-.72.116-.92.21-.193.093-.29.266-.29.52 0 .233.09.413.27.54.187.126.45.19.79.19zm5.913.82c-.574 0-1.014-.137-1.32-.41-.3-.28-.45-.684-.45-1.21v-2.68h-.93v-1h.93v-1.81h1.18v1.81h1.37v1h-1.37v2.6c0 .226.056.4.17.52.113.12.28.18.5.18h.6v1h-.68zm2.034-6.01a.732.732 0 0 1-.54-.22.766.766 0 0 1-.22-.55.73.73 0 0 1 .22-.54.732.732 0 0 1 .54-.22c.22 0 .4.073.54.22.146.146.22.326.22.54a.75.75 0 0 1-.22.55.713.713 0 0 1-.54.22zm.59 6.01h-1.18v-5.3h1.18v5.3zm3.972 0h-1.23l-2.21-5.3h1.28l1.55 3.91 1.54-3.91h1.28l-2.21 5.3zm3.329-6.01a.732.732 0 0 1-.54-.22.766.766 0 0 1-.22-.55.73.73 0 0 1 .22-.54.732.732 0 0 1 .54-.22c.22 0 .4.073.54.22.146.146.22.326.22.54a.75.75 0 0 1-.22.55.713.713 0 0 1-.54.22zm.59 6.01h-1.18v-5.3h1.18v5.3zm3.363 0c-.574 0-1.014-.137-1.32-.41-.3-.28-.45-.684-.45-1.21v-2.68h-.93v-1h.93v-1.81h1.18v1.81h1.37v1h-1.37v2.6c0 .226.056.4.17.52.113.12.28.18.5.18h.6v1h-.68zm1.402 2v-1h.96c.413 0 .673-.147.78-.44l.21-.56h-.22l-2.1-5.3h1.27l1.52 4.02 1.49-4.02h1.23l-2.31 6.21c-.14.366-.36.64-.66.82-.3.18-.703.27-1.21.27h-.96z"/><circle cx="59.077" cy="132.231" r="58.577" fill="url(#b)" fill-opacity=".2" stroke="#7B6EFC"/><circle cx="140.308" cy="132.231" r="58.577" fill="url(#c)" fill-opacity=".2" stroke="#7B6EFC"/><path fill="#fff" d="M50.22 135.212c-.586 0-1.103-.107-1.55-.32a2.455 2.455 0 0 1-1.02-.88 2.398 2.398 0 0 1-.35-1.28v-4.67h1.2v4.64c0 .44.157.786.47 1.04.32.246.734.37 1.24.37.507 0 .92-.124 1.24-.37.32-.254.48-.6.48-1.04v-4.64h1.2v4.67c0 .466-.116.89-.35 1.27-.233.373-.57.67-1.01.89-.44.213-.956.32-1.55.32zm6.088 0c-.72 0-1.29-.16-1.71-.48-.413-.327-.636-.78-.67-1.36h1.14c.02.28.137.496.35.65.22.146.497.22.83.22.3 0 .527-.054.68-.16a.555.555 0 0 0 .24-.48.428.428 0 0 0-.1-.3.484.484 0 0 0-.23-.17 6.641 6.641 0 0 0-.47-.17l-.7-.23a6.93 6.93 0 0 1-.88-.35 1.612 1.612 0 0 1-.55-.46c-.14-.2-.21-.454-.21-.76 0-.48.174-.86.52-1.14.353-.28.843-.42 1.47-.42.62 0 1.127.16 1.52.48.394.32.623.776.69 1.37h-1.12c-.026-.294-.14-.514-.34-.66-.193-.147-.447-.22-.76-.22-.26 0-.463.053-.61.16-.14.1-.21.24-.21.42 0 .126.04.23.12.31.08.08.163.136.25.17.087.033.243.09.47.17l.64.21c.394.133.707.263.94.39.234.126.414.286.54.48.133.193.2.443.2.75 0 .493-.18.88-.54 1.16-.353.28-.853.42-1.5.42zm5.14 0a2.842 2.842 0 0 1-1.42-.35 2.563 2.563 0 0 1-.97-.99 3.023 3.023 0 0 1-.34-1.44c0-.567.113-1.064.34-1.49.233-.434.55-.764.95-.99.4-.234.847-.35 1.34-.35.5 0 .937.113 1.31.34.38.22.677.54.89.96.213.413.323.903.33 1.47v.28h-3.98c.04.473.197.853.47 1.14.28.28.643.42 1.09.42.307 0 .57-.07.79-.21a1.15 1.15 0 0 0 .46-.62h1.15c-.133.573-.413 1.023-.84 1.35-.426.32-.95.48-1.57.48zm1.21-3.39c-.073-.387-.227-.687-.46-.9a1.19 1.19 0 0 0-.85-.32c-.346 0-.643.11-.89.33-.246.213-.416.51-.51.89h2.71zm1.941 3.24v-5.3h.95l.14 1.04c.347-.734.96-1.1 1.84-1.1h.2v1.15h-.2c-.553 0-.983.14-1.29.42-.307.28-.46.67-.46 1.17v2.62h-1.18zm5.758.15c-.72 0-1.29-.16-1.71-.48-.414-.327-.637-.78-.67-1.36h1.14a.83.83 0 0 0 .35.65c.22.146.496.22.83.22.3 0 .526-.054.68-.16a.555.555 0 0 0 .24-.48.428.428 0 0 0-.1-.3.484.484 0 0 0-.23-.17 6.641 6.641 0 0 0-.47-.17l-.7-.23a6.93 6.93 0 0 1-.88-.35 1.612 1.612 0 0 1-.55-.46c-.14-.2-.21-.454-.21-.76 0-.48.173-.86.52-1.14.353-.28.843-.42 1.47-.42.62 0 1.126.16 1.52.48.393.32.623.776.69 1.37h-1.12c-.027-.294-.14-.514-.34-.66-.194-.147-.447-.22-.76-.22-.26 0-.464.053-.61.16-.14.1-.21.24-.21.42 0 .126.04.23.12.31.08.08.163.136.25.17.086.033.243.09.47.17l.64.21c.393.133.706.263.94.39.233.126.413.286.54.48.133.193.2.443.2.75 0 .493-.18.88-.54 1.16-.354.28-.854.42-1.5.42zm55.559-.15h-1.2v-7h1.48l2.19 5.56 2.18-5.56h1.48v7h-1.2v-4.93l-1.94 4.93h-1.05l-1.94-4.92v4.92zm9.009.11c-.613 0-1.103-.137-1.47-.41-.36-.28-.54-.664-.54-1.15 0-.56.207-.954.62-1.18.42-.227.97-.38 1.65-.46l.54-.06c.307-.034.527-.087.66-.16.134-.08.2-.187.2-.32a.773.773 0 0 0-.3-.62c-.193-.16-.456-.24-.79-.24-.346 0-.636.086-.87.26a.928.928 0 0 0-.4.67h-1.19c.034-.367.16-.694.38-.98.22-.294.51-.52.87-.68.367-.16.777-.24 1.23-.24.7 0 1.244.173 1.63.52.394.346.59.81.59 1.39v2.4c0 .153.087.23.26.23h.29v.92h-.56c-.266 0-.483-.054-.65-.16a.731.731 0 0 1-.31-.46c-.02-.06-.036-.12-.05-.18-.326.606-.923.91-1.79.91zm.24-.93c.414 0 .754-.107 1.02-.32.267-.214.4-.497.4-.85v-.74c-.086.14-.23.24-.43.3-.2.053-.48.103-.84.15-.413.046-.72.116-.92.21-.193.093-.29.266-.29.52 0 .233.09.413.27.54.187.126.45.19.79.19zm3.699.82v-5.3h.95l.14 1.04c.347-.734.96-1.1 1.84-1.1h.2v1.15h-.2c-.553 0-.983.14-1.29.42-.307.28-.46.67-.46 1.17v2.62h-1.18zm4.906 0h-1.18v-7.5h1.18v4.5l2.26-2.3h1.44l-1.92 1.91 2.18 3.39h-1.37l-1.63-2.57-.96.96v1.61zm6.461.15c-.534 0-1.007-.117-1.42-.35a2.556 2.556 0 0 1-.97-.99 3.02 3.02 0 0 1-.34-1.44c0-.567.113-1.064.34-1.49.233-.434.55-.764.95-.99.4-.234.846-.35 1.34-.35.5 0 .936.113 1.31.34.38.22.676.54.89.96.213.413.323.903.33 1.47v.28h-3.98c.04.473.196.853.47 1.14.28.28.643.42 1.09.42.306 0 .57-.07.79-.21a1.15 1.15 0 0 0 .46-.62h1.15c-.134.573-.414 1.023-.84 1.35-.427.32-.95.48-1.57.48zm1.21-3.39c-.074-.387-.227-.687-.46-.9a1.19 1.19 0 0 0-.85-.32c-.347 0-.644.11-.89.33-.247.213-.417.51-.51.89h2.71zm4.144 3.24c-.573 0-1.013-.137-1.32-.41-.3-.28-.45-.684-.45-1.21v-2.68h-.93v-1h.93v-1.81h1.18v1.81h1.37v1h-1.37v2.6c0 .226.057.4.17.52.113.12.28.18.5.18h.6v1h-.68z"/><path fill="#5E55F5" fill-rule="evenodd" d="M83.058 115.972c3.072-10.268 8.797-19.391 16.38-26.573 7.583 7.182 13.308 16.305 16.38 26.573a60.534 60.534 0 0 1-16.38 2.243c-5.676 0-11.17-.781-16.38-2.243z" clip-rule="evenodd"/><defs><linearGradient id="a" x1="99.692" x2="99.692" y1="0" y2="118.154" gradientUnits="userSpaceOnUse"><stop stop-color="#7B6EFC"/><stop offset="1" stop-opacity="0"/></linearGradient><linearGradient id="b" x1="0" x2="118" y1="130.654" y2="130.654" gradientUnits="userSpaceOnUse"><stop stop-color="#7B6EFC"/><stop offset="1" stop-opacity="0"/></linearGradient><linearGradient id="c" x1="199" x2="81.001" y1="132.654" y2="132.654" gradientUnits="userSpaceOnUse"><stop stop-color="#7B6EFC"/><stop offset="1" stop-opacity="0"/></linearGradient></defs></svg>