<svg xmlns="http://www.w3.org/2000/svg" width="340" height="187" fill="none"><rect width="216.615" height="135.666" x=".4" y="47.348" fill="url(#a)" fill-opacity=".8" rx="16.234" transform="rotate(-3.932 .4 47.348)"/><rect width="187.383" height="20.987" x="15.983" y="60.928" fill="#78778B" rx="10.493" transform="rotate(-3.932 15.983 60.928)"/><rect width="187.383" height="29.981" x="17.833" y="87.847" fill="#78778B" rx="11.992" transform="rotate(-3.932 17.833 87.847)"/><rect width="187.383" height="5.996" x="20.505" y="126.731" fill="#78778B" rx="2.998" transform="rotate(-3.932 20.505 126.731)"/><rect width="187.383" height="13.492" x="21.328" y="138.696" fill="#78778B" rx="6.746" transform="rotate(-3.932 21.328 138.696)"/><rect width="110.931" height="5.996" x="22.87" y="161.129" fill="#78778B" rx="2.998" transform="rotate(-3.932 22.87 161.129)"/><rect width="216.615" height="135.666" x=".4" y="47.348" stroke="#454355" stroke-width=".75" rx="16.234" transform="rotate(-3.932 .4 47.348)"/><rect width="289" height="186" x="50.5" y=".5" fill="url(#b)" rx="21.5"/><rect width="74" height="28" x="70" y="20" fill="#DEDDED" rx="14"/><rect width="250" height="65" x="70" y="56" fill="#DEDDED" rx="16"/><rect width="250" height="18" x="70" y="129" fill="#DEDDED" rx="9"/><rect width="148" height="8" x="70" y="159" fill="#DEDDED" rx="4"/><rect width="289" height="186" x="50.5" y=".5" stroke="#5E55F5" rx="21.5"/><defs><linearGradient id="a" x1="108.682" x2="108.682" y1="47" y2="183.44" gradientUnits="userSpaceOnUse"><stop stop-color="#3D3B51"/><stop offset="1" stop-color="#20202C"/></linearGradient><linearGradient id="b" x1="195" x2="195" y1="0" y2="187.033" gradientUnits="userSpaceOnUse"><stop stop-color="#8274FD"/><stop offset="1" stop-color="#3431EC"/></linearGradient></defs></svg>